<svg width="64" height="64" viewBox="0 0 64 64" fill="none" xmlns="http://www.w3.org/2000/svg">
<path fill-rule="evenodd" clip-rule="evenodd" d="M60.6766 16.1709L48.9423 15.602L48.2596 7.95042C48.1174 6.34331 46.6808 5.21975 45.0025 5.34775L2.90154 8.80375C1.22319 8.94598 0.0142127 10.2971 0.142222 11.89L3.15756 45.426C3.29979 47.0331 4.75057 48.1566 6.4147 48.0286L8.54819 47.858L8.20683 54.3718C8.12149 56.1638 9.51537 57.6144 11.3928 57.714L58.3582 59.9469C60.2356 60.0322 61.786 58.7238 61.8855 56.9318L63.8626 19.4846C63.9479 17.7069 62.5398 16.2562 60.6766 16.1709V16.1709ZM10.1839 16.9247L9.17407 36.0963L6.69921 39.6091L4.42349 14.2936C4.42349 14.2651 4.42349 14.2509 4.42349 14.2225C4.42349 14.194 4.42349 14.1798 4.42349 14.1514C4.4946 13.4403 5.03509 12.8714 5.7747 12.8145L42.8975 9.77092C43.6371 9.71403 44.2771 10.1976 44.3909 10.8945C44.3909 10.9229 44.4336 10.9229 44.4336 10.9514C44.4336 10.9656 44.4763 10.9798 44.4763 11.0083L44.8603 15.3887L13.7113 13.8954C11.8338 13.8385 10.2693 15.1469 10.1839 16.9247V16.9247ZM57.7038 50.6169L51.0615 42.752L47.1501 38.1014C46.8087 37.6889 46.254 37.3476 45.6424 37.3192C45.0308 37.2907 44.5757 37.5325 44.0636 37.9023L41.731 39.5947C41.2332 39.8934 40.8492 40.0925 40.3229 40.064C39.8109 40.0356 39.3557 39.8365 39.0286 39.5236C38.9148 39.4098 38.7015 39.2107 38.5308 39.04L32.4432 32.0854C32.0023 31.5307 31.2769 31.1752 30.4804 31.1325C29.6697 31.0898 28.8874 31.4312 28.3754 31.9289L13.9956 47.4027L13.0284 48.4552L13.0711 47.488L14.0383 29.1556L14.5076 20.2098C14.5076 20.1814 14.5076 20.1529 14.5076 20.1387C14.5076 20.1103 14.5076 20.0818 14.5076 20.0676C14.7068 19.2996 15.3895 18.7449 16.2002 18.7876L45.2442 20.1814L49.3263 20.3805L57.6184 20.7787C58.4434 20.8214 59.0834 21.4472 59.0977 22.2294C59.0977 22.2578 59.1403 22.272 59.1403 22.3005C59.1403 22.3289 59.183 22.3432 59.183 22.3716L57.7038 50.6169V50.6169ZM48.6722 33.5361C51.4315 33.5361 53.6788 31.2889 53.6788 28.5298C53.6788 25.7707 51.4457 23.5236 48.6722 23.5236C45.9128 23.5236 43.6656 25.7565 43.6656 28.5298C43.6656 31.3032 45.8986 33.5361 48.6722 33.5361V33.5361Z" fill="#85744C"/>
<mask id="mask0" mask-type="alpha" maskUnits="userSpaceOnUse" x="0" y="5" width="64" height="55">
<path fill-rule="evenodd" clip-rule="evenodd" d="M60.6766 16.1709L48.9423 15.602L48.2596 7.95042C48.1174 6.34331 46.6808 5.21975 45.0025 5.34775L2.90154 8.80375C1.22319 8.94598 0.0142127 10.2971 0.142222 11.89L3.15756 45.426C3.29979 47.0331 4.75057 48.1566 6.4147 48.0286L8.54819 47.858L8.20683 54.3718C8.12149 56.1638 9.51537 57.6144 11.3928 57.714L58.3582 59.9469C60.2356 60.0322 61.786 58.7238 61.8855 56.9318L63.8626 19.4846C63.9479 17.7069 62.5398 16.2562 60.6766 16.1709V16.1709ZM10.1839 16.9247L9.17407 36.0963L6.69921 39.6091L4.42349 14.2936C4.42349 14.2651 4.42349 14.2509 4.42349 14.2225C4.42349 14.194 4.42349 14.1798 4.42349 14.1514C4.4946 13.4403 5.03509 12.8714 5.7747 12.8145L42.8975 9.77092C43.6371 9.71403 44.2771 10.1976 44.3909 10.8945C44.3909 10.9229 44.4336 10.9229 44.4336 10.9514C44.4336 10.9656 44.4763 10.9798 44.4763 11.0083L44.8603 15.3887L13.7113 13.8954C11.8338 13.8385 10.2693 15.1469 10.1839 16.9247V16.9247ZM57.7038 50.6169L51.0615 42.752L47.1501 38.1014C46.8087 37.6889 46.254 37.3476 45.6424 37.3192C45.0308 37.2907 44.5757 37.5325 44.0636 37.9023L41.731 39.5947C41.2332 39.8934 40.8492 40.0925 40.3229 40.064C39.8109 40.0356 39.3557 39.8365 39.0286 39.5236C38.9148 39.4098 38.7015 39.2107 38.5308 39.04L32.4432 32.0854C32.0023 31.5307 31.2769 31.1752 30.4804 31.1325C29.6697 31.0898 28.8874 31.4312 28.3754 31.9289L13.9956 47.4027L13.0284 48.4552L13.0711 47.488L14.0383 29.1556L14.5076 20.2098C14.5076 20.1814 14.5076 20.1529 14.5076 20.1387C14.5076 20.1103 14.5076 20.0818 14.5076 20.0676C14.7068 19.2996 15.3895 18.7449 16.2002 18.7876L45.2442 20.1814L49.3263 20.3805L57.6184 20.7787C58.4434 20.8214 59.0834 21.4472 59.0977 22.2294C59.0977 22.2578 59.1403 22.272 59.1403 22.3005C59.1403 22.3289 59.183 22.3432 59.183 22.3716L57.7038 50.6169V50.6169ZM48.6722 33.5361C51.4315 33.5361 53.6788 31.2889 53.6788 28.5298C53.6788 25.7707 51.4457 23.5236 48.6722 23.5236C45.9128 23.5236 43.6656 25.7565 43.6656 28.5298C43.6656 31.3032 45.8986 33.5361 48.6722 33.5361V33.5361Z" fill="white"/>
</mask>
<g mask="url(#mask0)">
<rect width="64" height="64" fill="#85744C"/>
</g>
</svg>
