<svg width="32" height="32" viewBox="0 0 32 32" fill="none" xmlns="http://www.w3.org/2000/svg">
<path d="M31.4667 28.2665H18.6667V27.7332H30.9333C31.2279 27.7332 31.4667 27.4944 31.4667 27.1999C31.4667 26.9053 31.2279 26.6665 30.9333 26.6665H18.6667V26.1332H30.9333C31.2279 26.1332 31.4667 25.8944 31.4667 25.5999V21.8665C31.4567 13.9477 25.4753 7.31174 17.6 6.48254V4.79987H18.6667C19.8449 4.79987 20.8 3.84474 20.8 2.66654C20.8 1.48834 19.8449 0.533203 18.6667 0.533203H13.3333C12.1551 0.533203 11.2 1.48834 11.2 2.66654C11.2 3.84474 12.1551 4.79987 13.3333 4.79987H14.4V6.48254C6.52473 7.31174 0.543267 13.9477 0.533333 21.8665V25.5999C0.533333 25.8944 0.772133 26.1332 1.06667 26.1332H13.3333V26.6665H1.06667C0.772133 26.6665 0.533333 26.9053 0.533333 27.1999C0.533333 27.4944 0.772133 27.7332 1.06667 27.7332H13.3333V28.2665H0.533333C0.2388 28.2665 0 28.5053 0 28.7999V30.9332C0 31.2277 0.2388 31.4665 0.533333 31.4665H31.4667C31.7612 31.4665 32 31.2277 32 30.9332V28.7999C32 28.5053 31.7612 28.2665 31.4667 28.2665ZM13.3333 3.7332C12.7442 3.7332 12.2667 3.25567 12.2667 2.66654C12.2667 2.0774 12.7442 1.59987 13.3333 1.59987H18.6667C19.2558 1.59987 19.7333 2.0774 19.7333 2.66654C19.7333 3.25567 19.2558 3.7332 18.6667 3.7332H13.3333ZM16.5333 4.79987V6.39987H15.4667V4.79987H16.5333ZM1.6 25.0665V21.8665C1.6 13.9136 8.04707 7.46654 16 7.46654C23.9529 7.46654 30.4 13.9136 30.4 21.8665V25.0665H1.6ZM14.4 26.6665V26.1332H17.6V26.6665H14.4ZM17.6 27.7332V28.2665H14.4V27.7332H17.6ZM30.9333 30.3999H1.06667V29.3332H30.9333V30.3999Z" fill="#85744C"/>
<path d="M29.1488 19.6446C29.1045 19.3534 28.8325 19.1532 28.5413 19.1976C28.2501 19.2419 28.05 19.5139 28.0943 19.8051C28.0952 19.8106 28.0961 19.8162 28.0971 19.8216C28.21 20.4974 28.2668 21.1813 28.2667 21.8664C28.2667 22.161 28.5055 22.3998 28.8 22.3998C29.0946 22.3998 29.3334 22.161 29.3334 21.8664C29.3335 21.122 29.2718 20.3788 29.1488 19.6446Z" fill="#85744C"/>
<path d="M28.576 17.4255C26.6871 12.0995 21.651 8.53854 16 8.5332C15.7055 8.5332 15.4667 8.772 15.4667 9.06654C15.4667 9.36107 15.7055 9.59987 16 9.59987C21.1989 9.60474 25.8323 12.8808 27.5701 17.7807C27.6682 18.0584 27.9729 18.2041 28.2507 18.106C28.5284 18.0079 28.6741 17.7032 28.576 17.4255Z" fill="#85744C"/>
</svg>
