<svg width="35" height="35" viewBox="0 0 35 35" fill="none" xmlns="http://www.w3.org/2000/svg">
<path d="M17.5 12.25C16.2801 12.2507 15.1241 11.7047 14.35 10.7619C13.5683 9.80693 13.2561 8.55174 13.4995 7.34183C13.8199 5.73905 15.0721 4.48576 16.6745 4.16383C18.8736 3.70132 21.0311 5.10905 21.4936 7.308C21.4965 7.322 21.4994 7.33593 21.5022 7.35C21.6682 8.16317 22.3826 8.74796 23.2125 8.75H23.3333C24.2998 8.75 25.0833 7.96651 25.0833 7C25.0833 3.14008 21.6813 0 17.5 0C13.3138 0.0048125 9.92144 3.39719 9.91663 7.58333V27.4167C9.91663 31.6049 13.3118 35 17.5 35C21.6881 35 25.0833 31.6049 25.0833 27.4167V19.8333C25.0785 15.6472 21.6861 12.2548 17.5 12.25ZM23.9166 27.4167C23.9166 30.9605 21.0438 33.8333 17.5 33.8333C13.9561 33.8333 11.0833 30.9605 11.0833 27.4167V7.58333C11.0874 4.04126 13.9579 1.17082 17.5 1.16667C21.0379 1.16667 23.9166 3.7835 23.9166 7C23.9166 7.32215 23.6554 7.58333 23.3333 7.58333H23.2125C22.9378 7.5829 22.7011 7.38981 22.6455 7.12075C22.0505 4.28991 19.2916 2.46232 16.4529 3.01875C13.6114 3.59567 11.7756 6.36686 12.3525 9.20835C12.5238 10.0519 12.8998 10.8404 13.4475 11.5045C14.4435 12.717 15.9309 13.4189 17.5 13.4167C21.042 13.4208 23.9125 16.2913 23.9166 19.8333V27.4167Z" fill="#85744C"/>
<path d="M17.5 16.333H12.8333C12.5112 16.333 12.25 16.5942 12.25 16.9163C12.25 17.2385 12.5112 17.4997 12.8333 17.4997H17.5C17.8221 17.4997 18.0833 17.2385 18.0833 16.9163C18.0833 16.5942 17.8221 16.333 17.5 16.333Z" fill="#85744C"/>
<path d="M22.1667 18.667H12.8333C12.5112 18.667 12.25 18.9282 12.25 19.2503C12.25 19.5725 12.5112 19.8337 12.8333 19.8337H22.1667C22.4888 19.8337 22.75 19.5725 22.75 19.2503C22.75 18.9282 22.4888 18.667 22.1667 18.667Z" fill="#85744C"/>
<path d="M22.1667 21H12.8333C12.5112 21 12.25 21.2612 12.25 21.5833C12.25 21.9055 12.5112 22.1667 12.8333 22.1667H22.1667C22.4888 22.1667 22.75 21.9055 22.75 21.5833C22.75 21.2612 22.4888 21 22.1667 21Z" fill="#85744C"/>
<path d="M17.5 23.333C14.9227 23.333 12.8334 25.4224 12.8334 27.9997C12.8334 30.577 14.9227 32.6663 17.5 32.6663C20.0774 32.6663 22.1667 30.577 22.1667 27.9997C22.1638 25.4235 20.0762 23.3359 17.5 23.333ZM17.5 31.4997C15.567 31.4997 14 29.9327 14 27.9997C14 26.0667 15.567 24.4997 17.5 24.4997C19.4331 24.4997 21 26.0667 21 27.9997C20.9981 29.9319 19.4323 31.4978 17.5 31.4997Z" fill="#85744C"/>
<path d="M20.2314 26.4206C20.0054 26.2022 19.6469 26.2022 19.4209 26.4206L16.9166 28.9249L15.579 27.5873C15.3473 27.3634 14.978 27.3699 14.7542 27.6016C14.5359 27.8276 14.5359 28.186 14.7542 28.4121L16.5042 30.1621C16.732 30.3898 17.1012 30.3898 17.329 30.1621L20.2457 27.2455C20.4696 27.0137 20.4631 26.6445 20.2314 26.4206Z" fill="#85744C"/>
</svg>
