<svg width="32" height="32" viewBox="0 0 32 32" fill="none" xmlns="http://www.w3.org/2000/svg">
<g clip-path="url(#clip0)">
<path d="M14.3761 25.1203C14.3135 24.9268 14.1463 24.7858 13.945 24.7568L10.9077 24.3183L9.55261 21.5869C9.39661 21.3232 9.05645 21.2358 8.79275 21.3918C8.71235 21.4394 8.64528 21.5065 8.59772 21.5869L7.24052 24.3183L4.20321 24.7568C3.912 24.7991 3.71018 25.0695 3.75241 25.3607C3.76933 25.4773 3.82441 25.585 3.90907 25.667L6.11032 27.7984L5.58386 31.3899C5.54123 31.6811 5.74265 31.9517 6.03386 31.9944C6.1706 32.0144 6.30981 31.9805 6.42205 31.8998L9.07303 29.9917L11.7262 31.8993C11.9651 32.071 12.2981 32.0165 12.4698 31.7776C12.5505 31.6653 12.5844 31.5261 12.5643 31.3894L12.0379 27.7979L14.2391 25.6664C14.3851 25.5253 14.4382 25.3135 14.3761 25.1203ZM11.1006 27.2224C10.9775 27.3416 10.9191 27.5127 10.9439 27.6823L11.3276 30.3002L9.38422 28.9025C9.19832 28.7688 8.94774 28.7688 8.76184 28.9025L6.8185 30.3002L7.20216 27.6823C7.22693 27.5127 7.16865 27.3416 7.0455 27.2224L5.42826 25.6584L7.66628 25.3355C7.83946 25.3104 7.98919 25.2019 8.06699 25.0451L9.07303 23.0213L10.078 25.043C10.1558 25.1997 10.3056 25.3082 10.4787 25.3334L12.7167 25.6563L11.1006 27.2224Z" fill="#85744C"/>
<path d="M10.5212 12.1232C10.4393 12.0386 10.3316 11.9835 10.215 11.9666L7.17767 11.528L5.82261 8.79877C5.66661 8.53507 5.32645 8.44775 5.06275 8.60374C4.98235 8.6513 4.91528 8.71837 4.86772 8.79877L3.50839 11.5302L0.471079 11.9688C0.269791 11.9977 0.102606 12.1387 0.0399943 12.3322C-0.0223505 12.5256 0.0307359 12.7377 0.17694 12.8789L2.37233 15.0018L1.85386 18.0013C1.8021 18.291 1.99493 18.5678 2.28467 18.6196C2.40097 18.6404 2.5208 18.6219 2.62544 18.5672L5.34303 17.1482L8.06063 18.5672C8.13689 18.6066 8.22148 18.6273 8.30734 18.6274C8.60161 18.6273 8.84014 18.3887 8.84007 18.0944C8.84007 18.0639 8.83741 18.0335 8.83221 18.0034L8.31374 15.0018L10.5091 12.8768C10.7205 12.672 10.7259 12.3346 10.5212 12.1232ZM7.3695 14.4343C7.24282 14.5569 7.18494 14.7343 7.21497 14.908L7.59757 17.1237L5.58868 16.0745C5.43402 15.9942 5.24992 15.9942 5.09525 16.0745L3.08636 17.1237L3.46896 14.908C3.499 14.7343 3.44112 14.5569 3.31443 14.4343L1.69826 12.8704L3.93734 12.5453C4.11052 12.5201 4.26026 12.4116 4.33806 12.2549L5.34303 10.2332L6.34801 12.2549C6.42581 12.4116 6.57554 12.5201 6.74872 12.5453L8.98674 12.8682L7.3695 14.4343Z" fill="#85744C"/>
<path d="M31.8357 12.122C31.7538 12.0374 31.6461 11.9823 31.5294 11.9654L28.4921 11.5268L27.1371 8.79751C26.9831 8.53268 26.6436 8.44276 26.3787 8.59669C26.2955 8.64505 26.2263 8.71425 26.1779 8.79751L24.8207 11.529L21.7834 11.9675C21.4922 12.0098 21.2904 12.2802 21.3326 12.5714C21.3495 12.6879 21.4046 12.7956 21.4893 12.8776L23.6847 15.0027L23.1662 18.0022C23.115 18.292 23.3085 18.5684 23.5983 18.6196C23.715 18.6401 23.8351 18.6213 23.9399 18.5659L26.6575 17.1469L29.3751 18.5659C29.4513 18.6054 29.5359 18.626 29.6218 18.6262C29.9161 18.6261 30.1546 18.3874 30.1545 18.0932C30.1545 18.0627 30.1519 18.0322 30.1467 18.0022L29.6282 15.0006L31.8236 12.8755C32.035 12.6708 32.0404 12.3335 31.8357 12.122ZM28.6818 14.4331C28.5551 14.5558 28.4973 14.7331 28.5273 14.9068L28.9099 17.1225L26.901 16.0733C26.7463 15.993 26.5622 15.993 26.4076 16.0733L24.3987 17.1225L24.7813 14.9068C24.8113 14.7331 24.7534 14.5558 24.6268 14.4331L23.0127 12.8692L25.2507 12.5463C25.4239 12.5211 25.5736 12.4126 25.6514 12.2559L26.6575 10.232L27.6603 12.2537C27.7381 12.4105 27.8879 12.519 28.061 12.5441L30.2991 12.867L28.6818 14.4331Z" fill="#85744C"/>
<path d="M21.3033 3.80581C21.2407 3.61231 21.0735 3.47137 20.8722 3.44239L17.8349 3.00385L16.4798 0.272401C16.3238 0.00870106 15.9836 -0.0786216 15.7199 0.0773736C15.6395 0.124931 15.5725 0.192005 15.5249 0.272401L14.1656 3.00385L11.1283 3.44239C10.8371 3.48469 10.6352 3.75505 10.6775 4.04626C10.6944 4.16282 10.7495 4.27053 10.8341 4.35252L13.0295 6.47757L12.5111 9.47705C12.4606 9.76699 12.6547 10.0429 12.9446 10.0934C13.06 10.1136 13.1788 10.095 13.2826 10.0408L16.0002 8.62181L18.7178 10.0408C18.7941 10.0803 18.8787 10.1009 18.9645 10.101C19.2588 10.101 19.4973 9.86231 19.4973 9.56804C19.4973 9.53753 19.4946 9.50709 19.4894 9.47705L18.9709 6.47544L21.1663 4.35039C21.3117 4.20958 21.3647 3.99857 21.3033 3.80581ZM18.0278 5.90794C17.9011 6.03057 17.8432 6.20795 17.8732 6.38166L18.2558 8.5973L16.2469 7.54809C16.0923 7.46783 15.9082 7.46783 15.7535 7.54809L13.7446 8.5973L14.1272 6.38166C14.1573 6.20788 14.0994 6.03057 13.9727 5.90794L12.3555 4.344L14.5935 4.02108C14.7667 3.9959 14.9164 3.8874 14.9942 3.73067L16.0002 1.70686L17.0052 3.72854C17.083 3.88527 17.2328 3.99377 17.4059 4.01895L19.6439 4.34186L18.0278 5.90794Z" fill="#85744C"/>
<path d="M28.2304 25.1203C28.1678 24.9268 28.0006 24.7858 27.7993 24.7568L24.762 24.3183L23.407 21.5869C23.251 21.3232 22.9108 21.2358 22.6471 21.3918C22.5667 21.4394 22.4996 21.5065 22.4521 21.5869L21.0949 24.3183L18.0576 24.7568C17.7664 24.7991 17.5646 25.0695 17.6068 25.3607C17.6237 25.4773 17.6788 25.585 17.7634 25.667L19.9647 27.7984L19.4382 31.3899C19.3956 31.6811 19.5971 31.9517 19.8882 31.9944C20.025 32.0144 20.1642 31.9805 20.2764 31.8998L22.9274 29.9917L25.5805 31.8993C25.8195 32.071 26.1525 32.0165 26.3242 31.7776C26.4048 31.6653 26.4387 31.5261 26.4187 31.3894L25.8922 27.7979L28.0935 25.6664C28.2395 25.5253 28.2926 25.3135 28.2304 25.1203ZM24.9549 27.2224C24.8318 27.3416 24.7735 27.5127 24.7983 27.6823L25.1819 30.3002L23.2386 28.9025C23.0527 28.7688 22.8021 28.7688 22.6162 28.9025L20.6729 30.3002L21.0565 27.6823C21.0813 27.5127 21.023 27.3416 20.8999 27.2224L19.2826 25.6584L21.5206 25.3355C21.6938 25.3104 21.8436 25.2019 21.9214 25.0451L22.9274 23.0213L23.9324 25.043C24.0102 25.1997 24.16 25.3082 24.3331 25.3334L26.5711 25.6563L24.9549 27.2224Z" fill="#85744C"/>
<path d="M16.0002 11.2178C12.4687 11.2178 9.60583 14.0806 9.60583 17.6121C9.60963 21.1421 12.4702 24.0027 16.0002 24.0065C19.5316 24.0065 22.3945 21.1436 22.3945 17.6121C22.3945 14.0806 19.5316 11.2178 16.0002 11.2178ZM16.0002 22.9407C13.0572 22.9407 10.6716 20.555 10.6716 17.6121C10.6748 14.6705 13.0586 12.2867 16.0002 12.2835C18.9431 12.2835 21.3288 14.6692 21.3288 17.6121C21.3288 20.555 18.9431 22.9407 16.0002 22.9407Z" fill="#85744C"/>
<path d="M19.1973 14.415H17.0659C16.7716 14.415 16.533 14.6536 16.533 14.9479V16.0136H15.4673V14.9479C15.4673 14.6536 15.2287 14.415 14.9344 14.415H12.803C12.5087 14.415 12.2701 14.6536 12.2701 14.9479V20.2765C12.2701 20.5708 12.5087 20.8094 12.803 20.8094H14.9344C15.2287 20.8094 15.4673 20.5708 15.4673 20.2765V19.2108H16.533V20.2765C16.533 20.5708 16.7716 20.8094 17.0659 20.8094H19.1973C19.4916 20.8094 19.7302 20.5708 19.7302 20.2765V14.9479C19.7302 14.6536 19.4916 14.415 19.1973 14.415ZM18.6645 19.7437H17.5988V18.6779C17.5988 18.3837 17.3602 18.1451 17.0659 18.1451H14.9344C14.6402 18.1451 14.4016 18.3837 14.4016 18.6779V19.7437H13.3359V15.4808H14.4016V16.5465C14.4016 16.8408 14.6402 17.0793 14.9344 17.0793H17.0659C17.3602 17.0793 17.5988 16.8408 17.5988 16.5465V15.4808H18.6645V19.7437Z" fill="#85744C"/>
</g>
<defs>
<clipPath id="clip0">
<rect width="32" height="32" fill="white"/>
</clipPath>
</defs>
</svg>
