<svg width="32" height="32" viewBox="0 0 32 32" fill="none" xmlns="http://www.w3.org/2000/svg">
<path d="M30.2292 8.67673C29.1087 6.50358 27.4746 4.58462 25.5039 3.12725C25.2147 2.91344 24.807 2.97455 24.5931 3.26368C24.3792 3.55281 24.4404 3.96056 24.7295 4.17448C26.5406 5.51377 28.042 7.27698 29.0717 9.27365C30.1505 11.3658 30.6975 13.6288 30.6975 16.0001C30.6975 24.1043 24.1042 30.6976 15.9999 30.6976C7.89573 30.6976 1.30239 24.1043 1.30239 15.9999C1.30239 7.89562 7.89573 1.30239 15.9999 1.30239C16.3595 1.30239 16.6511 1.01076 16.6511 0.651194C16.6511 0.291626 16.3595 0 15.9999 0C7.17757 0 0 7.17757 0 15.9999C0 24.8223 7.17757 31.9999 15.9999 31.9999C24.8223 31.9999 31.9999 24.8223 31.9999 15.9999C31.9999 13.4555 31.3877 10.9232 30.2292 8.67673Z" fill="white"/>
<path d="M11.9058 8.57069C11.7022 8.6865 11.5764 8.90269 11.5764 9.1368V23.4277C11.5764 23.7874 11.868 24.0789 12.2276 24.0789C12.5872 24.0789 12.8788 23.7874 12.8788 23.4277V10.2824L22.5201 16.0219L15.4303 20.5897C15.128 20.7845 15.0408 21.1875 15.2356 21.4897C15.4305 21.7921 15.8334 21.8794 16.1358 21.6844L24.1091 16.5473C24.2986 16.4252 24.4115 16.2138 24.4074 15.9883C24.4034 15.7629 24.2832 15.5556 24.0894 15.4402L12.5607 8.5772C12.3593 8.45749 12.1094 8.45489 11.9058 8.57069Z" fill="white"/>
</svg>
